# xmcd CD database file
#
# Track frame offsets:
#	150
#	17380
#	36106
#	56603
#	87205
#	116511
#	135183
#	159088
#
# Disc length: 2469 seconds
#
# Revision: 0
# Processed by: cddbd v1.5.2PL0 Copyright (c) Steve Scherf et al.
# Submitted via: CDex 1.51
#
DISCID=4e09a308
DTITLE=Crime And The City Solution - American Twilight
DYEAR=2013
DGENRE=
TTITLE0=Goddess
TTITLE1=My Love Takes Me There
TTITLE2=Riven Man
TTITLE3=Domina
TTITLE4=The Colonel (Doesn't Call Anymore)
TTITLE5=Beyond Good And Evil
TTITLE6=American Twilight
TTITLE7=Streets of West Memphis
EXTD=YEAR: 2013
EXTT0=
EXTT1=
EXTT2=
EXTT3=
EXTT4=
EXTT5=
EXTT6=
EXTT7=
PLAYORDER=
